# xmcd
#
# Track frame offsets:
#	183
#	21823
#	38410
#	52683
#	65728
#	84050
#	102880
#	118558
#	136038
#	143115
#	155173
#	176070
#	191665
#	205905
#	228110
#	239625
#
# Disc length: 3391 seconds
#
# Revision: 2
# Processed by: cddbd v1.5.1PL2 Copyright (c) Steve Scherf et al.
# Submitted via: EasyCDDAExtractor 9.0.0.1
#
DISCID=cd0d3d10
DTITLE=Various Artist - The Total Blues Collection (Vol. 2)
DYEAR=1991
DGENRE=Blues
TTITLE0=Still Got The Blues
TTITLE1=I Need All Your Lovin'
TTITLE2=How Blue Can You Get
TTITLE3=I've Got The Blues For You
TTITLE4=Peaches And Diesel
TTITLE5=When Love Comes To Town
TTITLE6=I'm Begging (Don't Ever Leave Me)
TTITLE7=Crossroads
TTITLE8=Jigsaw Puzzle Blues
TTITLE9=Play The Blues
TTITLE10=Now Is The Right Time
TTITLE11=Don't Leave Me Baby
TTITLE12=I'm Burning
TTITLE13=I Ain't Got No Money
TTITLE14=How Many More Nights
TTITLE15=I'm In The Mood For The Midnight Blues
EXTD=
EXTT0=
EXTT1=
EXTT2=
EXTT3=
EXTT4=
EXTT5=
EXTT6=
EXTT7=
EXTT8=
EXTT9=
EXTT10=
EXTT11=
EXTT12=
EXTT13=
EXTT14=
EXTT15=
PLAYORDER=
